<svg width="40" height="39" viewBox="0 0 40 39" fill="none" xmlns="http://www.w3.org/2000/svg">
<path d="M12.0811 8.13062L4.41124 10.9222L8.5589 22.3178L0.747354 20.0033C0.42695 18.8032 0.631564 17.5066 1.32742 16.4604L2.36362 14.8902L1.32787 12.0445C0.708296 10.3422 1.58671 8.45844 3.28899 7.83886L8.20953 6.04793L10.5522 2.51092C11.007 1.82162 11.6674 1.29755 12.4446 1.01465C13.2219 0.731746 14.0646 0.708721 14.8537 0.938013L18.9242 2.1481L23.8448 0.357169C25.547 -0.262408 27.4308 0.616007 28.0504 2.31828L29.0861 5.16397L30.8892 5.70075C32.0947 6.0549 33.0849 6.91665 33.6109 8.04192L29.1147 14.8361L24.967 3.44054L12.0811 8.13062ZM6.47437 35.7781L1.66037 22.5517L19.4072 27.8192C20.3119 28.0864 21.2844 28.0598 22.1708 27.7372C23.0573 27.4145 23.8216 26.8162 24.3406 26.0235L34.5496 10.581L39.3636 23.8074C40.1889 26.0749 39.0163 28.5896 36.7488 29.4149L12.0819 38.3929C9.8143 39.2182 7.29969 38.0456 6.47437 35.7781ZM11.0465 13.163L21.3244 9.42211C21.8897 9.21637 22.5205 9.51053 22.7263 10.0758C22.932 10.6411 22.6379 11.2719 22.0726 11.4777L11.7947 15.2185C11.2294 15.4243 10.5986 15.1301 10.3928 14.5648C10.1871 13.9995 10.4812 13.3687 11.0465 13.163ZM12.5429 17.2741L22.8207 13.5333C23.386 13.3275 24.0169 13.6217 24.2226 14.187C24.4284 14.7523 24.1342 15.3831 23.5689 15.5888L13.291 19.3297C12.7257 19.5354 12.0949 19.2413 11.8892 18.676C11.6834 18.1107 11.9776 17.4799 12.5429 17.2741Z" fill="white"/>
</svg>
