<svg width="42" height="37" viewBox="0 0 42 37" fill="none" xmlns="http://www.w3.org/2000/svg">
<path d="M30.1485 1.02685L2.74077 11.0024C1.22764 11.5532 0.446823 13.2276 0.997559 14.7408L8.31299 34.8398C8.86373 36.3529 10.5382 37.1337 12.0513 36.583L39.459 26.6074C40.9722 26.0566 41.753 24.3822 41.2022 22.869L33.8868 2.77007C33.3361 1.25693 31.6616 0.476119 30.1485 1.02685ZM12.0446 13.8238C14.0602 13.0902 16.2954 14.1325 17.029 16.1481C17.7627 18.1637 16.7204 20.3989 14.7048 21.1325C12.6892 21.8662 10.4539 20.8239 9.72033 18.8083C8.9867 16.7927 10.029 14.5574 12.0446 13.8238ZM23.361 25.0173C23.5813 25.6226 23.1891 26.3215 22.481 26.5792L12.2488 30.3034C11.5408 30.5611 10.7911 30.2779 10.5708 29.6726L10.1717 28.5763C9.51086 26.7605 10.6934 24.6618 12.8118 23.8908L13.0972 23.7869C13.9056 23.8225 14.731 23.7096 15.5361 23.4165C16.3412 23.1235 17.0517 22.6773 17.6424 22.1326L17.9279 22.0287C20.0462 21.2576 22.3011 22.1053 22.962 23.921L23.361 25.0173ZM35.054 17.3472C35.1454 17.5984 35.0147 17.8788 34.7634 17.9703L26.5411 20.9629C26.2899 21.0544 26.0095 20.9236 25.9181 20.6724L25.5856 19.7588C25.4941 19.5076 25.6249 19.2272 25.8761 19.1358L34.0984 16.1431C34.3496 16.0516 34.63 16.1824 34.7215 16.4336L35.054 17.3472ZM33.7239 13.6928C33.8153 13.9441 33.6846 14.2245 33.4334 14.3159L25.2111 17.3086C24.9598 17.4 24.6794 17.2693 24.588 17.018L24.2555 16.1044C24.164 15.8532 24.2948 15.5728 24.546 15.4814L32.7683 12.4887C33.0196 12.3973 33.2999 12.528 33.3914 12.7793L33.7239 13.6928ZM32.3938 10.0385C32.4853 10.2897 32.3545 10.5701 32.1033 10.6615L23.881 13.6542C23.6297 13.7457 23.3494 13.6149 23.2579 13.3637L22.9254 12.4501C22.834 12.1988 22.9647 11.9185 23.2159 11.827L31.4382 8.83435C31.6895 8.74291 31.9699 8.87365 32.0613 9.12489L32.3938 10.0385Z" fill="white"/>
</svg>
