<svg width="42" height="38" viewBox="0 0 42 38" fill="none" xmlns="http://www.w3.org/2000/svg">
<path d="M19.046 0.400614C18.7948 0.503589 18.5655 0.639003 18.3325 0.795972L2.54291 11.3234C0.676233 12.5715 0.146486 15.1055 1.39633 16.9729L7.4356 26.0072C7.79784 26.5444 8.28353 26.987 8.85199 27.2979C9.42044 27.6089 10.0551 27.779 10.7029 27.7942L9.83308 25.4045C8.55413 21.8906 10.3724 17.9913 13.8863 16.7124L29.9378 10.8701L23.9672 1.90177C23.4446 1.12351 22.6696 0.549281 21.7729 0.275908C20.8762 0.00253475 19.9126 0.0467427 19.0447 0.401077L19.046 0.400614ZM22.5991 5.33266L25.2153 9.29658L21.2905 11.8971L18.6491 7.98711L22.5991 5.33266V5.33266ZM14.8141 19.2614C12.7034 20.0296 11.6139 22.3661 12.3822 24.4767L16.0933 34.673C16.8615 36.7836 19.1979 37.8731 21.3086 37.1049L39.1521 30.6104C41.2627 29.8422 42.3522 27.5058 41.584 25.3951L37.8728 15.1989C37.1046 13.0882 34.7682 11.9987 32.6576 12.7669L14.8141 19.2614ZM15.5535 21.293L33.397 14.7985C34.3797 14.4409 35.4836 14.9556 35.8412 15.9383L36.3051 17.2128L14.8777 25.0118L14.4138 23.7373C14.0561 22.7546 14.5709 21.6507 15.5535 21.293ZM16.2693 28.8354L37.6968 21.0364L39.5524 26.1346C39.91 27.1172 39.3953 28.2212 38.4126 28.5788L20.5691 35.0733C20.0937 35.2433 19.5704 35.219 19.1128 35.0056C18.6552 34.7922 18.3003 34.407 18.1249 33.9335L16.2693 28.8354Z" fill="white"/>
</svg>
